<?xml version="1.0" encoding="us-ascii" standalone="no"?><svg xmlns="http://www.w3.org/2000/svg" xmlns:xlink="http://www.w3.org/1999/xlink" contentStyleType="text/css" height="1833.3333px" preserveAspectRatio="none" style="width:1280px;height:1833px;" version="1.1" viewBox="0 0 1280 1833" width="1280.2083px" zoomAndPan="magnify"><defs><linearGradient id="g1rwbyuc0o8z0s0" x1="50%" x2="50%" y1="0%" y2="100%"><stop offset="0%" stop-color="#FFFFFF"/><stop offset="100%" stop-color="#EEEEEE"/></linearGradient><linearGradient id="g1rwbyuc0o8z0s1" x1="50%" x2="50%" y1="0%" y2="100%"><stop offset="0%" stop-color="#F18E3E"/><stop offset="100%" stop-color="#EC7211"/></linearGradient></defs><g><rect fill="url(#g1rwbyuc0o8z0s0)" height="45.0846" id="_title" rx="4.1667" ry="4.1667" style="stroke:#EEEEEE;stroke-width:1.0416666666666667;" width="648.9583" x="319.7917" y="10.4167"/><text fill="#EC7211" font-family="Verdana" font-size="20.8333" font-weight="bold" lengthAdjust="spacing" textLength="628.125" x="330.2083" y="40.1713">Running CertStream - Simplified Sequence Diagram</text><rect fill="none" height="1764.5508" rx="4.1667" ry="4.1667" style="stroke:#4E5D6C;stroke-width:0.5208333333333334;" width="684.375" x="562.5" y="62.793"/><text fill="#4E5D6C" font-family="Verdana" font-size="12.5" font-weight="bold" lengthAdjust="spacing" textLength="70.8333" x="869.2708" y="79.6041">Commons</text><rect fill="#8191A3" height="1527.1484" style="stroke:#ABB6C2;stroke-width:1.0416666666666667;" width="10.4167" x="247.3958" y="190.8529"/><rect fill="#8191A3" height="830.7943" style="stroke:#ABB6C2;stroke-width:1.0416666666666667;" width="10.4167" x="415.625" y="264.7461"/><rect fill="#8191A3" height="26.0417" style="stroke:#ABB6C2;stroke-width:1.0416666666666667;" width="10.4167" x="420.8333" y="401.1068"/><rect fill="#8191A3" height="134.3099" style="stroke:#ABB6C2;stroke-width:1.0416666666666667;" width="10.4167" x="420.8333" y="523.9583"/><rect fill="#8191A3" height="215.5273" style="stroke:#ABB6C2;stroke-width:1.0416666666666667;" width="10.4167" x="420.8333" y="755.0781"/><rect fill="#8191A3" height="26.0417" style="stroke:#ABB6C2;stroke-width:1.0416666666666667;" width="10.4167" x="426.0417" y="916.4388"/><rect fill="#8191A3" height="519.401" style="stroke:#ABB6C2;stroke-width:1.0416666666666667;" width="10.4167" x="415.625" y="1176.7253"/><rect fill="#8191A3" height="26.0417" style="stroke:#ABB6C2;stroke-width:1.0416666666666667;" width="10.4167" x="420.8333" y="1268.2943"/><rect fill="#8191A3" height="26.0417" style="stroke:#ABB6C2;stroke-width:1.0416666666666667;" width="10.4167" x="420.8333" y="1518.0664"/><rect fill="#8191A3" height="14.5833" style="stroke:#ABB6C2;stroke-width:1.0416666666666667;" width="10.4167" x="629.1667" y="304.2969"/><rect fill="#8191A3" height="14.5833" style="stroke:#ABB6C2;stroke-width:1.0416666666666667;" width="10.4167" x="796.875" y="568.7174"/><rect fill="#8191A3" height="14.5833" style="stroke:#ABB6C2;stroke-width:1.0416666666666667;" width="10.4167" x="796.875" y="622.8516"/><rect fill="#8191A3" height="14.5833" style="stroke:#ABB6C2;stroke-width:1.0416666666666667;" width="10.4167" x="796.875" y="799.8372"/><rect fill="#8191A3" height="14.5833" style="stroke:#ABB6C2;stroke-width:1.0416666666666667;" width="10.4167" x="796.875" y="853.9714"/><rect fill="#8191A3" height="14.5833" style="stroke:#ABB6C2;stroke-width:1.0416666666666667;" width="10.4167" x="980.7292" y="1059.082"/><rect fill="#8191A3" height="14.5833" style="stroke:#ABB6C2;stroke-width:1.0416666666666667;" width="10.4167" x="980.7292" y="1598.2422"/><rect fill="#8191A3" height="14.5833" style="stroke:#ABB6C2;stroke-width:1.0416666666666667;" width="10.4167" x="980.7292" y="1666.9596"/><rect fill="#8191A3" height="14.5833" style="stroke:#ABB6C2;stroke-width:1.0416666666666667;" width="10.4167" x="1156.25" y="1411.9141"/><rect fill="none" height="897.3958" rx="4.1667" ry="4.1667" style="stroke:#4E5D6C;stroke-width:1.5625;" width="916.6667" x="173.9583" y="206.4779"/><rect fill="none" height="108.2682" rx="4.1667" ry="4.1667" style="stroke:#4E5D6C;stroke-width:1.5625;" width="287.5" x="320.8333" y="334.5052"/><rect fill="none" height="216.5365" rx="4.1667" ry="4.1667" style="stroke:#4E5D6C;stroke-width:1.5625;" width="581.25" x="320.8333" y="457.3568"/><rect fill="none" height="297.7539" rx="4.1667" ry="4.1667" style="stroke:#4E5D6C;stroke-width:1.5625;" width="581.25" x="320.8333" y="688.4766"/><rect fill="none" height="81.1849" rx="4.1667" ry="4.1667" style="stroke:#4E5D6C;stroke-width:1.5625;" width="759.375" x="320.8333" y="1000.8138"/><rect fill="none" height="586.0026" rx="4.1667" ry="4.1667" style="stroke:#4E5D6C;stroke-width:1.5625;" width="1100" x="173.9583" y="1118.457"/><rect fill="none" height="436.1003" rx="4.1667" ry="4.1667" style="stroke:#4E5D6C;stroke-width:1.5625;" width="963.5417" x="300" y="1192.3503"/><rect fill="none" height="303.9063" rx="4.1667" ry="4.1667" style="stroke:#4E5D6C;stroke-width:1.5625;" width="942.7083" x="310.4167" y="1317.2526"/><rect fill="none" height="117.6107" rx="4.1667" ry="4.1667" style="stroke:#4E5D6C;stroke-width:1.5625;" width="264.5833" x="320.8333" y="1442.1224"/><line style="stroke:#ABB6C2;stroke-width:0.5208333333333334;stroke-dasharray:5.0,5.0;" x1="89.5833" x2="89.5833" y1="149.2188" y2="1736.7513"/><line style="stroke:#ABB6C2;stroke-width:0.5208333333333334;stroke-dasharray:5.0,5.0;" x1="252.0833" x2="252.0833" y1="149.2188" y2="1736.7513"/><line style="stroke:#ABB6C2;stroke-width:0.5208333333333334;stroke-dasharray:5.0,5.0;" x1="420.8333" x2="420.8333" y1="149.2188" y2="1736.7513"/><line style="stroke:#ABB6C2;stroke-width:0.5208333333333334;stroke-dasharray:5.0,5.0;" x1="634.375" x2="634.375" y1="149.2188" y2="1736.7513"/><line style="stroke:#ABB6C2;stroke-width:0.5208333333333334;stroke-dasharray:5.0,5.0;" x1="802.0833" x2="802.0833" y1="149.2188" y2="1736.7513"/><line style="stroke:#ABB6C2;stroke-width:0.5208333333333334;stroke-dasharray:5.0,5.0;" x1="985.4167" x2="985.4167" y1="149.2188" y2="1736.7513"/><line style="stroke:#ABB6C2;stroke-width:0.5208333333333334;stroke-dasharray:5.0,5.0;" x1="1161.4583" x2="1161.4583" y1="149.2188" y2="1736.7513"/><text fill="#4E5D6C" font-family="Verdana" font-size="12.5" lengthAdjust="spacing" textLength="152.0833" x="10.4167" y="141.0624">User (via Terminal/CMD)</text><ellipse cx="89.5833" cy="70.6055" fill="url(#g1rwbyuc0o8z0s1)" rx="8.3333" ry="8.3333" style="stroke:#EC7211;stroke-width:0.5208333333333334;"/><path d="M89.5833,78.9388 L89.5833,107.0638 M76.0417,87.2721 L103.125,87.2721 M89.5833,107.0638 L76.0417,122.6888 M89.5833,107.0638 L103.125,122.6888 " fill="none" style="stroke:#EC7211;stroke-width:0.5208333333333334;"/><text fill="#4E5D6C" font-family="Verdana" font-size="12.5" lengthAdjust="spacing" textLength="152.0833" x="10.4167" y="1752.5208">User (via Terminal/CMD)</text><ellipse cx="89.5833" cy="1769.5313" fill="url(#g1rwbyuc0o8z0s1)" rx="8.3333" ry="8.3333" style="stroke:#EC7211;stroke-width:0.5208333333333334;"/><path d="M89.5833,1777.8646 L89.5833,1805.9896 M76.0417,1786.1979 L103.125,1786.1979 M89.5833,1805.9896 L76.0417,1821.6146 M89.5833,1805.9896 L103.125,1821.6146 " fill="none" style="stroke:#EC7211;stroke-width:0.5208333333333334;"/><rect fill="url(#g1rwbyuc0o8z0s1)" height="39.5508" rx="4.1667" ry="4.1667" style="stroke:#EC7211;stroke-width:0.5208333333333334;" width="53.125" x="226.0417" y="108.6263"/><text fill="#FFFFFF" font-family="Verdana" font-size="12.5" lengthAdjust="spacing" textLength="28.125" x="238.5417" y="132.7291">Main</text><rect fill="url(#g1rwbyuc0o8z0s1)" height="39.5508" rx="4.1667" ry="4.1667" style="stroke:#EC7211;stroke-width:0.5208333333333334;" width="53.125" x="226.0417" y="1735.7096"/><text fill="#FFFFFF" font-family="Verdana" font-size="12.5" lengthAdjust="spacing" textLength="28.125" x="238.5417" y="1759.8124">Main</text><rect fill="url(#g1rwbyuc0o8z0s1)" height="39.5508" rx="4.1667" ry="4.1667" style="stroke:#EC7211;stroke-width:0.5208333333333334;" width="95.8333" x="372.9167" y="108.6263"/><text fill="#FFFFFF" font-family="Verdana" font-size="12.5" lengthAdjust="spacing" textLength="70.8333" x="385.4167" y="132.7291">CertStream</text><rect fill="url(#g1rwbyuc0o8z0s1)" height="39.5508" rx="4.1667" ry="4.1667" style="stroke:#EC7211;stroke-width:0.5208333333333334;" width="95.8333" x="372.9167" y="1735.7096"/><text fill="#FFFFFF" font-family="Verdana" font-size="12.5" lengthAdjust="spacing" textLength="70.8333" x="385.4167" y="1759.8124">CertStream</text><rect fill="url(#g1rwbyuc0o8z0s1)" height="39.5508" rx="4.1667" ry="4.1667" style="stroke:#EC7211;stroke-width:0.5208333333333334;" width="52.0833" x="608.3333" y="108.6263"/><text fill="#FFFFFF" font-family="Verdana" font-size="12.5" lengthAdjust="spacing" textLength="27.0833" x="620.8333" y="132.7291">Utils</text><rect fill="url(#g1rwbyuc0o8z0s1)" height="39.5508" rx="4.1667" ry="4.1667" style="stroke:#EC7211;stroke-width:0.5208333333333334;" width="52.0833" x="608.3333" y="1735.7096"/><text fill="#FFFFFF" font-family="Verdana" font-size="12.5" lengthAdjust="spacing" textLength="27.0833" x="620.8333" y="1759.8124">Utils</text><rect fill="url(#g1rwbyuc0o8z0s1)" height="39.5508" rx="4.1667" ry="4.1667" style="stroke:#EC7211;stroke-width:0.5208333333333334;" width="95.8333" x="754.1667" y="108.6263"/><text fill="#FFFFFF" font-family="Verdana" font-size="12.5" lengthAdjust="spacing" textLength="70.8333" x="766.6667" y="132.7291">FileHandler</text><rect fill="url(#g1rwbyuc0o8z0s1)" height="39.5508" rx="4.1667" ry="4.1667" style="stroke:#EC7211;stroke-width:0.5208333333333334;" width="95.8333" x="754.1667" y="1735.7096"/><text fill="#FFFFFF" font-family="Verdana" font-size="12.5" lengthAdjust="spacing" textLength="70.8333" x="766.6667" y="1759.8124">FileHandler</text><rect fill="url(#g1rwbyuc0o8z0s1)" height="39.5508" rx="4.1667" ry="4.1667" style="stroke:#EC7211;stroke-width:0.5208333333333334;" width="84.375" x="943.75" y="108.6263"/><text fill="#FFFFFF" font-family="Verdana" font-size="12.5" lengthAdjust="spacing" textLength="59.375" x="956.25" y="132.7291">Database</text><rect fill="url(#g1rwbyuc0o8z0s1)" height="39.5508" rx="4.1667" ry="4.1667" style="stroke:#EC7211;stroke-width:0.5208333333333334;" width="84.375" x="943.75" y="1735.7096"/><text fill="#FFFFFF" font-family="Verdana" font-size="12.5" lengthAdjust="spacing" textLength="59.375" x="956.25" y="1759.8124">Database</text><rect fill="url(#g1rwbyuc0o8z0s1)" height="39.5508" rx="4.1667" ry="4.1667" style="stroke:#EC7211;stroke-width:0.5208333333333334;" width="79.1667" x="1121.875" y="108.6263"/><text fill="#FFFFFF" font-family="Verdana" font-size="12.5" lengthAdjust="spacing" textLength="54.1667" x="1134.375" y="132.7291">Sanitiser</text><rect fill="url(#g1rwbyuc0o8z0s1)" height="39.5508" rx="4.1667" ry="4.1667" style="stroke:#EC7211;stroke-width:0.5208333333333334;" width="79.1667" x="1121.875" y="1735.7096"/><text fill="#FFFFFF" font-family="Verdana" font-size="12.5" lengthAdjust="spacing" textLength="54.1667" x="1134.375" y="1759.8124">Sanitiser</text><rect fill="#8191A3" height="1527.1484" style="stroke:#ABB6C2;stroke-width:1.0416666666666667;" width="10.4167" x="247.3958" y="190.8529"/><rect fill="#8191A3" height="830.7943" style="stroke:#ABB6C2;stroke-width:1.0416666666666667;" width="10.4167" x="415.625" y="264.7461"/><rect fill="#8191A3" height="26.0417" style="stroke:#ABB6C2;stroke-width:1.0416666666666667;" width="10.4167" x="420.8333" y="401.1068"/><rect fill="#8191A3" height="134.3099" style="stroke:#ABB6C2;stroke-width:1.0416666666666667;" width="10.4167" x="420.8333" y="523.9583"/><rect fill="#8191A3" height="215.5273" style="stroke:#ABB6C2;stroke-width:1.0416666666666667;" width="10.4167" x="420.8333" y="755.0781"/><rect fill="#8191A3" height="26.0417" style="stroke:#ABB6C2;stroke-width:1.0416666666666667;" width="10.4167" x="426.0417" y="916.4388"/><rect fill="#8191A3" height="519.401" style="stroke:#ABB6C2;stroke-width:1.0416666666666667;" width="10.4167" x="415.625" y="1176.7253"/><rect fill="#8191A3" height="26.0417" style="stroke:#ABB6C2;stroke-width:1.0416666666666667;" width="10.4167" x="420.8333" y="1268.2943"/><rect fill="#8191A3" height="26.0417" style="stroke:#ABB6C2;stroke-width:1.0416666666666667;" width="10.4167" x="420.8333" y="1518.0664"/><rect fill="#8191A3" height="14.5833" style="stroke:#ABB6C2;stroke-width:1.0416666666666667;" width="10.4167" x="629.1667" y="304.2969"/><rect fill="#8191A3" height="14.5833" style="stroke:#ABB6C2;stroke-width:1.0416666666666667;" width="10.4167" x="796.875" y="568.7174"/><rect fill="#8191A3" height="14.5833" style="stroke:#ABB6C2;stroke-width:1.0416666666666667;" width="10.4167" x="796.875" y="622.8516"/><rect fill="#8191A3" height="14.5833" style="stroke:#ABB6C2;stroke-width:1.0416666666666667;" width="10.4167" x="796.875" y="799.8372"/><rect fill="#8191A3" height="14.5833" style="stroke:#ABB6C2;stroke-width:1.0416666666666667;" width="10.4167" x="796.875" y="853.9714"/><rect fill="#8191A3" height="14.5833" style="stroke:#ABB6C2;stroke-width:1.0416666666666667;" width="10.4167" x="980.7292" y="1059.082"/><rect fill="#8191A3" height="14.5833" style="stroke:#ABB6C2;stroke-width:1.0416666666666667;" width="10.4167" x="980.7292" y="1598.2422"/><rect fill="#8191A3" height="14.5833" style="stroke:#ABB6C2;stroke-width:1.0416666666666667;" width="10.4167" x="980.7292" y="1666.9596"/><rect fill="#8191A3" height="14.5833" style="stroke:#ABB6C2;stroke-width:1.0416666666666667;" width="10.4167" x="1156.25" y="1411.9141"/><polygon fill="#EC7211" points="234.8958,186.6862,245.3125,190.8529,234.8958,195.0195,239.0625,190.8529" style="stroke:#EC7211;stroke-width:1.0416666666666667;"/><line style="stroke:#EC7211;stroke-width:3.125;" x1="89.5833" x2="241.1458" y1="190.8529" y2="190.8529"/><text fill="#4E5D6C" font-family="Verdana" font-size="12.5" lengthAdjust="spacing" textLength="112.5" x="102.0833" y="180.6132">[python3 Main.py]</text><path d="M178.125,206.4779 L326.0417,206.4779 L326.0417,223.112 L315.625,233.5286 L173.9583,233.5286 L173.9583,210.6445 A4.1667,4.1667 0 0 1 178.125,206.4779 " fill="#EEEEEE" style="stroke:#4E5D6C;stroke-width:1.5625;"/><rect fill="none" height="897.3958" rx="4.1667" ry="4.1667" style="stroke:#4E5D6C;stroke-width:1.5625;" width="916.6667" x="173.9583" y="206.4779"/><text fill="#0073BB" font-family="Verdana" font-size="12.5" font-weight="bold" lengthAdjust="spacing" textLength="94.7917" x="194.7917" y="224.3306">Initialisation</text><polygon fill="#EC7211" points="403.125,260.5794,413.5417,264.7461,403.125,268.9128,407.2917,264.7461" style="stroke:#EC7211;stroke-width:1.0416666666666667;"/><line style="stroke:#EC7211;stroke-width:3.125;" x1="257.8125" x2="409.375" y1="264.7461" y2="264.7461"/><text fill="#4E5D6C" font-family="Verdana" font-size="12.5" lengthAdjust="spacing" textLength="81.25" x="270.3125" y="254.5064">CertStream()</text><polygon fill="#EC7211" points="616.6667,300.1302,627.0833,304.2969,616.6667,308.4635,620.8333,304.2969" style="stroke:#EC7211;stroke-width:1.0416666666666667;"/><line style="stroke:#EC7211;stroke-width:3.125;" x1="426.0417" x2="622.9167" y1="304.2969" y2="304.2969"/><text fill="#4E5D6C" font-family="Verdana" font-size="12.5" lengthAdjust="spacing" textLength="82.2917" x="438.5417" y="294.0572">load_config()</text><polygon fill="#EC7211" points="437.5,314.7135,427.0833,318.8802,437.5,323.0469,433.3333,318.8802" style="stroke:#EC7211;stroke-width:1.0416666666666667;"/><line style="stroke:#EC7211;stroke-width:3.125;stroke-dasharray:2.0,2.0;" x1="431.25" x2="633.3333" y1="318.8802" y2="318.8802"/><path d="M325,334.5052 L603.125,334.5052 L603.125,351.1393 L592.7083,361.556 L320.8333,361.556 L320.8333,338.6719 A4.1667,4.1667 0 0 1 325,334.5052 " fill="#EEEEEE" style="stroke:#4E5D6C;stroke-width:1.5625;"/><rect fill="none" height="108.2682" rx="4.1667" ry="4.1667" style="stroke:#4E5D6C;stroke-width:1.5625;" width="287.5" x="320.8333" y="334.5052"/><text fill="#0073BB" font-family="Verdana" font-size="12.5" font-weight="bold" lengthAdjust="spacing" textLength="225" x="341.6667" y="352.358">Initialising CertStream server</text><line style="stroke:#EC7211;stroke-width:3.125;" x1="426.0417" x2="475" y1="387.5651" y2="387.5651"/><line style="stroke:#EC7211;stroke-width:3.125;" x1="475" x2="475" y1="387.5651" y2="401.1068"/><line style="stroke:#EC7211;stroke-width:3.125;" x1="432.2917" x2="475" y1="401.1068" y2="401.1068"/><polygon fill="#EC7211" points="442.7083,396.9401,432.2917,401.1068,442.7083,405.2734,438.5417,401.1068" style="stroke:#EC7211;stroke-width:1.0416666666666667;"/><text fill="#4E5D6C" font-family="Verdana" font-size="12.5" lengthAdjust="spacing" textLength="98.9583" x="443.75" y="377.3254">read_ctserver()</text><line style="stroke:#EC7211;stroke-width:3.125;stroke-dasharray:2.0,2.0;" x1="431.25" x2="475" y1="426.1068" y2="426.1068"/><line style="stroke:#EC7211;stroke-width:3.125;stroke-dasharray:2.0,2.0;" x1="475" x2="475" y1="426.1068" y2="439.6484"/><line style="stroke:#EC7211;stroke-width:3.125;stroke-dasharray:2.0,2.0;" x1="426.0417" x2="475" y1="439.6484" y2="439.6484"/><polygon fill="#EC7211" points="436.4583,435.4818,426.0417,439.6484,436.4583,443.8151,432.2917,439.6484" style="stroke:#EC7211;stroke-width:1.0416666666666667;"/><path d="M325,457.3568 L544.7917,457.3568 L544.7917,473.9909 L534.375,484.4076 L320.8333,484.4076 L320.8333,461.5234 A4.1667,4.1667 0 0 1 325,457.3568 " fill="#EEEEEE" style="stroke:#4E5D6C;stroke-width:1.5625;"/><rect fill="none" height="216.5365" rx="4.1667" ry="4.1667" style="stroke:#4E5D6C;stroke-width:1.5625;" width="581.25" x="320.8333" y="457.3568"/><text fill="#0073BB" font-family="Verdana" font-size="12.5" font-weight="bold" lengthAdjust="spacing" textLength="166.6667" x="341.6667" y="475.2096">Initialising Output File</text><line style="stroke:#EC7211;stroke-width:3.125;" x1="426.0417" x2="475" y1="510.4167" y2="510.4167"/><line style="stroke:#EC7211;stroke-width:3.125;" x1="475" x2="475" y1="510.4167" y2="523.9583"/><line style="stroke:#EC7211;stroke-width:3.125;" x1="432.2917" x2="475" y1="523.9583" y2="523.9583"/><polygon fill="#EC7211" points="442.7083,519.7917,432.2917,523.9583,442.7083,528.125,438.5417,523.9583" style="stroke:#EC7211;stroke-width:1.0416666666666667;"/><text fill="#4E5D6C" font-family="Verdana" font-size="12.5" lengthAdjust="spacing" textLength="85.4167" x="443.75" y="500.177">read_output()</text><polygon fill="#EC7211" points="784.375,564.5508,794.7917,568.7174,784.375,572.8841,788.5417,568.7174" style="stroke:#EC7211;stroke-width:1.0416666666666667;"/><line style="stroke:#EC7211;stroke-width:3.125;" x1="431.25" x2="790.625" y1="568.7174" y2="568.7174"/><text fill="#4E5D6C" font-family="Verdana" font-size="12.5" lengthAdjust="spacing" textLength="158.3333" x="443.75" y="558.4778">check_availability(output)</text><polygon fill="#EC7211" points="442.7083,579.1341,432.2917,583.3008,442.7083,587.4674,438.5417,583.3008" style="stroke:#EC7211;stroke-width:1.0416666666666667;"/><line style="stroke:#EC7211;stroke-width:3.125;stroke-dasharray:2.0,2.0;" x1="436.4583" x2="801.0417" y1="583.3008" y2="583.3008"/><polygon fill="#EC7211" points="784.375,618.6849,794.7917,622.8516,784.375,627.0182,788.5417,622.8516" style="stroke:#EC7211;stroke-width:1.0416666666666667;"/><line style="stroke:#EC7211;stroke-width:3.125;" x1="431.25" x2="790.625" y1="622.8516" y2="622.8516"/><text fill="#4E5D6C" font-family="Verdana" font-size="12.5" lengthAdjust="spacing" textLength="81.25" x="443.75" y="612.6119">clear(output)</text><polygon fill="#EC7211" points="442.7083,633.2682,432.2917,637.4349,442.7083,641.6016,438.5417,637.4349" style="stroke:#EC7211;stroke-width:1.0416666666666667;"/><line style="stroke:#EC7211;stroke-width:3.125;stroke-dasharray:2.0,2.0;" x1="436.4583" x2="801.0417" y1="637.4349" y2="637.4349"/><line style="stroke:#EC7211;stroke-width:3.125;stroke-dasharray:2.0,2.0;" x1="431.25" x2="475" y1="657.2266" y2="657.2266"/><line style="stroke:#EC7211;stroke-width:3.125;stroke-dasharray:2.0,2.0;" x1="475" x2="475" y1="657.2266" y2="670.7682"/><line style="stroke:#EC7211;stroke-width:3.125;stroke-dasharray:2.0,2.0;" x1="426.0417" x2="475" y1="670.7682" y2="670.7682"/><polygon fill="#EC7211" points="436.4583,666.6016,426.0417,670.7682,436.4583,674.9349,432.2917,670.7682" style="stroke:#EC7211;stroke-width:1.0416666666666667;"/><path d="M325,688.4766 L506.25,688.4766 L506.25,705.1107 L495.8333,715.5273 L320.8333,715.5273 L320.8333,692.6432 A4.1667,4.1667 0 0 1 325,688.4766 " fill="#EEEEEE" style="stroke:#4E5D6C;stroke-width:1.5625;"/><rect fill="none" height="297.7539" rx="4.1667" ry="4.1667" style="stroke:#4E5D6C;stroke-width:1.5625;" width="581.25" x="320.8333" y="688.4766"/><text fill="#0073BB" font-family="Verdana" font-size="12.5" font-weight="bold" lengthAdjust="spacing" textLength="128.125" x="341.6667" y="706.3293">Initialising Regex</text><line style="stroke:#EC7211;stroke-width:3.125;" x1="426.0417" x2="475" y1="741.5365" y2="741.5365"/><line style="stroke:#EC7211;stroke-width:3.125;" x1="475" x2="475" y1="741.5365" y2="755.0781"/><line style="stroke:#EC7211;stroke-width:3.125;" x1="432.2917" x2="475" y1="755.0781" y2="755.0781"/><polygon fill="#EC7211" points="442.7083,750.9115,432.2917,755.0781,442.7083,759.2448,438.5417,755.0781" style="stroke:#EC7211;stroke-width:1.0416666666666667;"/><text fill="#4E5D6C" font-family="Verdana" font-size="12.5" lengthAdjust="spacing" textLength="83.3333" x="443.75" y="731.2968">read_regex()</text><polygon fill="#EC7211" points="784.375,795.6706,794.7917,799.8372,784.375,804.0039,788.5417,799.8372" style="stroke:#EC7211;stroke-width:1.0416666666666667;"/><line style="stroke:#EC7211;stroke-width:3.125;" x1="431.25" x2="790.625" y1="799.8372" y2="799.8372"/><text fill="#4E5D6C" font-family="Verdana" font-size="12.5" lengthAdjust="spacing" textLength="148.9583" x="443.75" y="789.5976">check_availability(input)</text><polygon fill="#EC7211" points="442.7083,810.2539,432.2917,814.4206,442.7083,818.5872,438.5417,814.4206" style="stroke:#EC7211;stroke-width:1.0416666666666667;"/><line style="stroke:#EC7211;stroke-width:3.125;stroke-dasharray:2.0,2.0;" x1="436.4583" x2="801.0417" y1="814.4206" y2="814.4206"/><polygon fill="#EC7211" points="784.375,849.8047,794.7917,853.9714,784.375,858.138,788.5417,853.9714" style="stroke:#EC7211;stroke-width:1.0416666666666667;"/><line style="stroke:#EC7211;stroke-width:3.125;" x1="431.25" x2="790.625" y1="853.9714" y2="853.9714"/><text fill="#4E5D6C" font-family="Verdana" font-size="12.5" lengthAdjust="spacing" textLength="69.7917" x="443.75" y="843.7317">read(input)</text><polygon fill="#EC7211" points="442.7083,864.388,432.2917,868.5547,442.7083,872.7214,438.5417,868.5547" style="stroke:#EC7211;stroke-width:1.0416666666666667;"/><line style="stroke:#EC7211;stroke-width:3.125;stroke-dasharray:2.0,2.0;" x1="436.4583" x2="801.0417" y1="868.5547" y2="868.5547"/><line style="stroke:#EC7211;stroke-width:3.125;" x1="431.25" x2="480.2083" y1="902.8971" y2="902.8971"/><line style="stroke:#EC7211;stroke-width:3.125;" x1="480.2083" x2="480.2083" y1="902.8971" y2="916.4388"/><line style="stroke:#EC7211;stroke-width:3.125;" x1="437.5" x2="480.2083" y1="916.4388" y2="916.4388"/><polygon fill="#EC7211" points="447.9167,912.2721,437.5,916.4388,447.9167,920.6055,443.75,916.4388" style="stroke:#EC7211;stroke-width:1.0416666666666667;"/><text fill="#4E5D6C" font-family="Verdana" font-size="12.5" lengthAdjust="spacing" textLength="172.9167" x="448.9583" y="892.6575">compile_regexes(regexes)</text><line style="stroke:#EC7211;stroke-width:3.125;stroke-dasharray:2.0,2.0;" x1="436.4583" x2="480.2083" y1="941.4388" y2="941.4388"/><line style="stroke:#EC7211;stroke-width:3.125;stroke-dasharray:2.0,2.0;" x1="480.2083" x2="480.2083" y1="941.4388" y2="954.9805"/><line style="stroke:#EC7211;stroke-width:3.125;stroke-dasharray:2.0,2.0;" x1="431.25" x2="480.2083" y1="954.9805" y2="954.9805"/><polygon fill="#EC7211" points="441.6667,950.8138,431.25,954.9805,441.6667,959.1471,437.5,954.9805" style="stroke:#EC7211;stroke-width:1.0416666666666667;"/><line style="stroke:#EC7211;stroke-width:3.125;stroke-dasharray:2.0,2.0;" x1="431.25" x2="475" y1="969.5638" y2="969.5638"/><line style="stroke:#EC7211;stroke-width:3.125;stroke-dasharray:2.0,2.0;" x1="475" x2="475" y1="969.5638" y2="983.1055"/><line style="stroke:#EC7211;stroke-width:3.125;stroke-dasharray:2.0,2.0;" x1="426.0417" x2="475" y1="983.1055" y2="983.1055"/><polygon fill="#EC7211" points="436.4583,978.9388,426.0417,983.1055,436.4583,987.2721,432.2917,983.1055" style="stroke:#EC7211;stroke-width:1.0416666666666667;"/><path d="M325,1000.8138 L533.3333,1000.8138 L533.3333,1017.4479 L522.9167,1027.8646 L320.8333,1027.8646 L320.8333,1004.9805 A4.1667,4.1667 0 0 1 325,1000.8138 " fill="#EEEEEE" style="stroke:#4E5D6C;stroke-width:1.5625;"/><rect fill="none" height="81.1849" rx="4.1667" ry="4.1667" style="stroke:#4E5D6C;stroke-width:1.5625;" width="759.375" x="320.8333" y="1000.8138"/><text fill="#0073BB" font-family="Verdana" font-size="12.5" font-weight="bold" lengthAdjust="spacing" textLength="155.2083" x="341.6667" y="1018.6666">Initialising Database</text><polygon fill="#EC7211" points="968.2292,1054.9154,978.6458,1059.082,968.2292,1063.2487,972.3958,1059.082" style="stroke:#EC7211;stroke-width:1.0416666666666667;"/><line style="stroke:#EC7211;stroke-width:3.125;" x1="426.0417" x2="974.4792" y1="1059.082" y2="1059.082"/><text fill="#4E5D6C" font-family="Verdana" font-size="12.5" lengthAdjust="spacing" textLength="108.3333" x="438.5417" y="1048.8424">Database(config)</text><polygon fill="#EC7211" points="437.5,1069.4987,427.0833,1073.6654,437.5,1077.832,433.3333,1073.6654" style="stroke:#EC7211;stroke-width:1.0416666666666667;"/><line style="stroke:#EC7211;stroke-width:3.125;stroke-dasharray:2.0,2.0;" x1="431.25" x2="984.8958" y1="1073.6654" y2="1073.6654"/><polygon fill="#EC7211" points="269.2708,1091.3737,258.8542,1095.5404,269.2708,1099.707,265.1042,1095.5404" style="stroke:#EC7211;stroke-width:1.0416666666666667;"/><line style="stroke:#EC7211;stroke-width:3.125;stroke-dasharray:2.0,2.0;" x1="263.0208" x2="419.7917" y1="1095.5404" y2="1095.5404"/><path d="M178.125,1118.457 L305.2083,1118.457 L305.2083,1135.0911 L294.7917,1145.5078 L173.9583,1145.5078 L173.9583,1122.6237 A4.1667,4.1667 0 0 1 178.125,1118.457 " fill="#EEEEEE" style="stroke:#4E5D6C;stroke-width:1.5625;"/><rect fill="none" height="586.0026" rx="4.1667" ry="4.1667" style="stroke:#4E5D6C;stroke-width:1.5625;" width="1100" x="173.9583" y="1118.457"/><text fill="#0073BB" font-family="Verdana" font-size="12.5" font-weight="bold" lengthAdjust="spacing" textLength="73.9583" x="194.7917" y="1136.3098">Execution</text><polygon fill="#EC7211" points="403.125,1172.5586,413.5417,1176.7253,403.125,1180.8919,407.2917,1176.7253" style="stroke:#EC7211;stroke-width:1.0416666666666667;"/><line style="stroke:#EC7211;stroke-width:3.125;" x1="257.8125" x2="409.375" y1="1176.7253" y2="1176.7253"/><text fill="#4E5D6C" font-family="Verdana" font-size="12.5" lengthAdjust="spacing" textLength="38.5417" x="270.3125" y="1166.4856">start()</text><path d="M304.1667,1192.3503 L389.5833,1192.3503 L389.5833,1208.9844 L379.1667,1219.401 L300,1219.401 L300,1196.5169 A4.1667,4.1667 0 0 1 304.1667,1192.3503 " fill="#EEEEEE" style="stroke:#4E5D6C;stroke-width:1.5625;"/><rect fill="none" height="436.1003" rx="4.1667" ry="4.1667" style="stroke:#4E5D6C;stroke-width:1.5625;" width="963.5417" x="300" y="1192.3503"/><text fill="#0073BB" font-family="Verdana" font-size="12.5" font-weight="bold" lengthAdjust="spacing" textLength="32.2917" x="320.8333" y="1210.203">loop</text><text fill="#4E5D6C" font-family="Verdana" font-size="12.5" font-weight="bold" lengthAdjust="spacing" textLength="277.0833" x="410.4167" y="1211.2447">[Whenever a new CT log is received.]</text><line style="stroke:#EC7211;stroke-width:3.125;" x1="426.0417" x2="475" y1="1254.7526" y2="1254.7526"/><line style="stroke:#EC7211;stroke-width:3.125;" x1="475" x2="475" y1="1254.7526" y2="1268.2943"/><line style="stroke:#EC7211;stroke-width:3.125;" x1="432.2917" x2="475" y1="1268.2943" y2="1268.2943"/><polygon fill="#EC7211" points="442.7083,1264.1276,432.2917,1268.2943,442.7083,1272.4609,438.5417,1268.2943" style="stroke:#EC7211;stroke-width:1.0416666666666667;"/><text fill="#4E5D6C" font-family="Verdana" font-size="12.5" lengthAdjust="spacing" textLength="129.1667" x="443.75" y="1244.5129">is_certupdate_msg()</text><line style="stroke:#EC7211;stroke-width:3.125;stroke-dasharray:2.0,2.0;" x1="431.25" x2="475" y1="1293.2943" y2="1293.2943"/><line style="stroke:#EC7211;stroke-width:3.125;stroke-dasharray:2.0,2.0;" x1="475" x2="475" y1="1293.2943" y2="1306.8359"/><line style="stroke:#EC7211;stroke-width:3.125;stroke-dasharray:2.0,2.0;" x1="426.0417" x2="475" y1="1306.8359" y2="1306.8359"/><polygon fill="#EC7211" points="436.4583,1302.6693,426.0417,1306.8359,436.4583,1311.0026,432.2917,1306.8359" style="stroke:#EC7211;stroke-width:1.0416666666666667;"/><path d="M314.5833,1317.2526 L388.5417,1317.2526 L388.5417,1333.8867 L378.125,1344.3034 L310.4167,1344.3034 L310.4167,1321.4193 A4.1667,4.1667 0 0 1 314.5833,1317.2526 " fill="#EEEEEE" style="stroke:#4E5D6C;stroke-width:1.5625;"/><rect fill="none" height="303.9063" rx="4.1667" ry="4.1667" style="stroke:#4E5D6C;stroke-width:1.5625;" width="942.7083" x="310.4167" y="1317.2526"/><text fill="#0073BB" font-family="Verdana" font-size="12.5" font-weight="bold" lengthAdjust="spacing" textLength="20.8333" x="331.25" y="1335.1054">alt</text><text fill="#4E5D6C" font-family="Verdana" font-size="12.5" font-weight="bold" lengthAdjust="spacing" textLength="217.7083" x="409.375" y="1336.1471">[Is Not Certupdate Message]</text><line style="stroke:#4E5D6C;stroke-width:1.0416666666666667;stroke-dasharray:2.0,2.0;" x1="310.4167" x2="1253.125" y1="1354.6875" y2="1354.6875"/><text fill="#4E5D6C" font-family="Verdana" font-size="12.5" font-weight="bold" lengthAdjust="spacing" textLength="186.4583" x="320.8333" y="1371.4986">[Is Certupdate Message]</text><polygon fill="#EC7211" points="1143.75,1407.7474,1154.1667,1411.9141,1143.75,1416.0807,1147.9167,1411.9141" style="stroke:#EC7211;stroke-width:1.0416666666666667;"/><line style="stroke:#EC7211;stroke-width:3.125;" x1="426.0417" x2="1150" y1="1411.9141" y2="1411.9141"/><text fill="#4E5D6C" font-family="Verdana" font-size="12.5" lengthAdjust="spacing" textLength="170.8333" x="438.5417" y="1401.6744">sanitise_domains(domains)</text><polygon fill="#EC7211" points="437.5,1422.3307,427.0833,1426.4974,437.5,1430.6641,433.3333,1426.4974" style="stroke:#EC7211;stroke-width:1.0416666666666667;"/><line style="stroke:#EC7211;stroke-width:3.125;stroke-dasharray:2.0,2.0;" x1="431.25" x2="1160.4167" y1="1426.4974" y2="1426.4974"/><path d="M325,1442.1224 L410.4167,1442.1224 L410.4167,1458.7565 L400,1469.1732 L320.8333,1469.1732 L320.8333,1446.2891 A4.1667,4.1667 0 0 1 325,1442.1224 " fill="#EEEEEE" style="stroke:#4E5D6C;stroke-width:1.5625;"/><rect fill="none" height="117.6107" rx="4.1667" ry="4.1667" style="stroke:#4E5D6C;stroke-width:1.5625;" width="264.5833" x="320.8333" y="1442.1224"/><text fill="#0073BB" font-family="Verdana" font-size="12.5" font-weight="bold" lengthAdjust="spacing" textLength="32.2917" x="341.6667" y="1459.9752">loop</text><text fill="#4E5D6C" font-family="Verdana" font-size="12.5" font-weight="bold" lengthAdjust="spacing" textLength="143.75" x="431.25" y="1461.0168">[For each domains]</text><line style="stroke:#EC7211;stroke-width:3.125;" x1="426.0417" x2="475" y1="1504.5247" y2="1504.5247"/><line style="stroke:#EC7211;stroke-width:3.125;" x1="475" x2="475" y1="1504.5247" y2="1518.0664"/><line style="stroke:#EC7211;stroke-width:3.125;" x1="432.2917" x2="475" y1="1518.0664" y2="1518.0664"/><polygon fill="#EC7211" points="442.7083,1513.8997,432.2917,1518.0664,442.7083,1522.2331,438.5417,1518.0664" style="stroke:#EC7211;stroke-width:1.0416666666666667;"/><text fill="#4E5D6C" font-family="Verdana" font-size="12.5" lengthAdjust="spacing" textLength="123.9583" x="443.75" y="1494.2851">is_relevant(domain)</text><line style="stroke:#EC7211;stroke-width:3.125;stroke-dasharray:2.0,2.0;" x1="431.25" x2="475" y1="1543.0664" y2="1543.0664"/><line style="stroke:#EC7211;stroke-width:3.125;stroke-dasharray:2.0,2.0;" x1="475" x2="475" y1="1543.0664" y2="1556.6081"/><line style="stroke:#EC7211;stroke-width:3.125;stroke-dasharray:2.0,2.0;" x1="426.0417" x2="475" y1="1556.6081" y2="1556.6081"/><polygon fill="#EC7211" points="436.4583,1552.4414,426.0417,1556.6081,436.4583,1560.7747,432.2917,1556.6081" style="stroke:#EC7211;stroke-width:1.0416666666666667;"/><polygon fill="#EC7211" points="968.2292,1594.0755,978.6458,1598.2422,968.2292,1602.4089,972.3958,1598.2422" style="stroke:#EC7211;stroke-width:1.0416666666666667;"/><line style="stroke:#EC7211;stroke-width:3.125;" x1="426.0417" x2="974.4792" y1="1598.2422" y2="1598.2422"/><text fill="#4E5D6C" font-family="Verdana" font-size="12.5" lengthAdjust="spacing" textLength="129.1667" x="438.5417" y="1588.0025">insert(relv_domains)</text><polygon fill="#EC7211" points="437.5,1608.6589,427.0833,1612.8255,437.5,1616.9922,433.3333,1612.8255" style="stroke:#EC7211;stroke-width:1.0416666666666667;"/><line style="stroke:#EC7211;stroke-width:3.125;stroke-dasharray:2.0,2.0;" x1="431.25" x2="984.8958" y1="1612.8255" y2="1612.8255"/><polygon fill="#EC7211" points="968.2292,1662.793,978.6458,1666.9596,968.2292,1671.1263,972.3958,1666.9596" style="stroke:#EC7211;stroke-width:1.0416666666666667;"/><line style="stroke:#EC7211;stroke-width:3.125;" x1="426.0417" x2="974.4792" y1="1666.9596" y2="1666.9596"/><text fill="#4E5D6C" font-family="Verdana" font-size="12.5" lengthAdjust="spacing" textLength="52.0833" x="438.5417" y="1656.72">export()</text><polygon fill="#EC7211" points="437.5,1677.3763,427.0833,1681.543,437.5,1685.7096,433.3333,1681.543" style="stroke:#EC7211;stroke-width:1.0416666666666667;"/><line style="stroke:#EC7211;stroke-width:3.125;stroke-dasharray:2.0,2.0;" x1="431.25" x2="984.8958" y1="1681.543" y2="1681.543"/><polygon fill="#EC7211" points="269.2708,1691.9596,258.8542,1696.1263,269.2708,1700.293,265.1042,1696.1263" style="stroke:#EC7211;stroke-width:1.0416666666666667;"/><line style="stroke:#EC7211;stroke-width:3.125;stroke-dasharray:2.0,2.0;" x1="263.0208" x2="419.7917" y1="1696.1263" y2="1696.1263"/><polygon fill="#EC7211" points="101.0417,1713.8346,90.625,1718.0013,101.0417,1722.168,96.875,1718.0013" style="stroke:#EC7211;stroke-width:1.0416666666666667;"/><line style="stroke:#EC7211;stroke-width:3.125;stroke-dasharray:2.0,2.0;" x1="94.7917" x2="251.5625" y1="1718.0013" y2="1718.0013"/><!--SRC=[dLGzRzim4DtvAwwU50HEXsuTijW9ci4j42VeK1J2cRh8Xr0aIrAA_UzBIeejEOwTTY9rN- -zu-a-XJLL1FZYfyQXBaa8_ymQdF7n6ZWeWibzhJNh4cRamZ8umWgciEJAAdvYAc19VshIac3EM3gi9aAW3CR1vD6JWwnXX0To5MjKdsUB-SK4q4Fo2Oiki6IBEi02MOyCUponCXkOcQeosez27WEhiUMM5Nr3NQY3wdCCkCAeQcXSekR0YGZf0YA842tbwNNBvlBoA_oosx0s-ajhkBBRtqAKpjGMxb8gAlOOs6YHt2blJpfbxx-o2p7ittL7FSKeWqKkZNxYCWOv2hNJXnW7xOyScqXwN72C7CzODNIH-xf9Prlx6CAFEjYwQ-7vsgODVYDhqFyKAjSadtDia1MkM77OPbtYZj7fT4Ne3ZC-8kMUIjgS5-5Is7zeOFrX2GddPFoObZILZGKwPkIp_lmdyRjP7mEzcXFCwpth1k_8VBmnz4Wt6vBrYP7t8VvWiQNA60i_rwGf3Y0WQ7g1sKESzXBOnwv8ueQAgvFDO9_BQAXjWO7ooWz-45G1xZnyDzsUw49WGTvZt6AaF2Nt4TSORxS1MkhzHrwOAchpMN_kG5jDjt6p4SerzDvp2XmfQkAswQiDMttYWMBXw8lFhvhya4PwaqHby3Zl5wADDUs3l3T0dU4l]--></g></svg>